<svg xmlns="http://www.w3.org/2000/svg" width="512" height="512" viewBox="0 0 512 512" version="1.1">
	<path d="M 119.500 105.644 C 108.094 107.430, 85 114.828, 85 116.697 C 85 116.977, 88.979 121.411, 93.843 126.550 C 104.074 137.361, 112.990 150.135, 117.050 159.797 C 120.319 167.579, 122.296 178.271, 121.344 183.029 C 120.976 184.869, 117.801 189.906, 114.095 194.529 C 97.987 214.623, 91 233.370, 91 256.500 C 91 279.957, 98.530 299.610, 115.305 319.932 L 121.440 327.365 121.324 334.432 C 121.065 350.210, 111.399 368.091, 92.349 388.030 C 88.307 392.261, 85 395.977, 85 396.288 C 85 397.279, 100.763 402.977, 109.793 405.250 C 121.587 408.218, 147.414 408.410, 159.500 405.619 C 178.201 401.300, 196.989 391.685, 211.308 379.103 C 214.503 376.296, 217.428 374.004, 217.808 374.008 C 218.189 374.013, 223.450 374.679, 229.500 375.489 C 242.305 377.202, 273.326 377.459, 286.500 375.959 C 350.460 368.681, 403.335 336.201, 421.552 293 C 427.169 279.680, 428.447 273.032, 428.475 257 C 428.503 240.820, 427.065 233.158, 421.521 219.946 C 403.345 176.635, 351.414 144.717, 286.500 136.961 C 268.665 134.829, 240.845 135.494, 221.500 138.513 C 217.752 139.098, 217.121 138.810, 211.500 133.952 C 196.788 121.240, 181.399 113.085, 163.074 108.291 C 155.268 106.249, 150.638 105.730, 138 105.481 C 129.475 105.312, 121.150 105.386, 119.500 105.644 M 242.591 168.096 C 213.467 170.495, 183.956 180.055, 162.500 194.042 C 152.053 200.853, 137.477 215.518, 132.227 224.500 C 125.444 236.105, 123.636 242.698, 123.591 256 C 123.523 275.754, 130.075 290.019, 146.551 305.987 C 150.799 310.105, 154.611 314.642, 155.020 316.071 C 159.010 329.982, 155.847 349.463, 146.629 367.750 L 142.975 375 145.827 375 C 150.691 375, 164.164 371.129, 171.500 367.623 C 180.252 363.442, 188.079 357.655, 199.074 347.238 L 207.649 339.115 219.249 341.470 C 291.326 356.104, 367.271 330.630, 391.619 283.654 C 397.059 273.158, 399.323 257.247, 397.067 245.353 C 391.635 216.712, 363.156 190.466, 323 177.093 C 310.531 172.940, 292.402 169.339, 277.500 168.055 C 264.068 166.897, 257.045 166.905, 242.591 168.096 M 187.655 237.459 C 177.401 241.115, 171.977 254.020, 176.381 264.282 C 178.063 268.204, 183.497 273.499, 187.315 274.939 C 199.550 279.551, 213.348 270.972, 214.647 257.945 C 215.114 253.264, 214.786 251.733, 212.311 247.034 C 207.496 237.894, 197.415 233.979, 187.655 237.459 M 253.685 236.959 C 249.078 238.437, 244.343 242.660, 242.102 247.289 C 235.569 260.785, 245.053 276, 260 276 C 279.549 276, 287.384 250.980, 271.369 239.698 C 266.997 236.618, 258.735 235.338, 253.685 236.959 M 315.899 238.784 C 311.562 241.050, 310.032 242.587, 307.689 247.034 C 305.214 251.733, 304.886 253.264, 305.353 257.945 C 306.393 268.373, 314.556 275.952, 324.782 275.984 C 331.649 276.005, 335.651 274.247, 340.193 269.213 C 344.305 264.656, 345.488 260.434, 344.765 252.904 C 344.175 246.764, 340.276 241.467, 333.980 238.250 C 327.981 235.185, 322.478 235.347, 315.899 238.784" stroke="none" fill="black" fill-rule="evenodd"/>
</svg>